<svg width="16" height="16" viewBox="0 0 16 16" xmlns="http://www.w3.org/2000/svg">
  <defs>
    <linearGradient id="pgConnectedDark" x1="0%" y1="0%" x2="100%" y2="100%">
      <stop offset="0%" style="stop-color:#5B9BD5;stop-opacity:1" />
      <stop offset="100%" style="stop-color:#4A90C2;stop-opacity:1" />
    </linearGradient>
  </defs>
  <!-- PostgreSQL elephant with modern dark design -->
  <path d="M3 2C2.5 2 2 2.5 2 3v10c0 0.5 0.5 1 1 1h10c0.5 0 1-0.5 1-1V3c0-0.5-0.5-1-1-1H3z" fill="url(#pgConnectedDark)" rx="2"/>
  <path d="M5 4.5c0-0.3 0.2-0.5 0.5-0.5h5c0.3 0 0.5 0.2 0.5 0.5s-0.2 0.5-0.5 0.5h-5c-0.3 0-0.5-0.2-0.5-0.5z" fill="white" opacity="0.95"/>
  <path d="M5 7c0-0.3 0.2-0.5 0.5-0.5h3c0.3 0 0.5 0.2 0.5 0.5s-0.2 0.5-0.5 0.5h-3C5.2 7.5 5 7.3 5 7z" fill="white" opacity="0.8"/>
  <path d="M5 9.5c0-0.3 0.2-0.5 0.5-0.5h4c0.3 0 0.5 0.2 0.5 0.5s-0.2 0.5-0.5 0.5h-4c-0.3 0-0.5-0.2-0.5-0.5z" fill="white" opacity="0.8"/>
  <!-- Green connection indicator -->
  <circle cx="12" cy="4" r="2" fill="#30D158" stroke="#2C2C2E" stroke-width="0.5"/>
  <path d="M11.3 4l0.4 0.4 0.6-0.8" stroke="white" stroke-width="1" fill="none" stroke-linecap="round"/>
</svg>