<svg xmlns="http://www.w3.org/2000/svg" width="640" height="360" viewBox="0 0 640 360" role="img" aria-label="Request Resolution — Booster / Cache / API">
<title>Request Resolution — Booster / Cache / API</title>
<rect width="640" height="360" fill="#0f0f10" rx="12"/>
<text x="320" y="34" font-family="system-ui, -apple-system, sans-serif" font-size="16" font-weight="700" fill="#ffffff" text-anchor="middle">Request Resolution — Booster / Cache / API</text>
<path d="M 200 86 A 110 110 0 0 1 304.6162167924669 229.99186938124421 L 264.67184310807045 217.0131556174964 A 68 68 0 0 0 200 128 Z" fill="#6366f1"/>
<path d="M 304.6162167924669 229.99186938124421 A 110 110 0 0 1 111.00813061875579 260.65637775217203 L 144.9868443825036 235.96939715588817 A 68 68 0 0 0 264.67184310807045 217.0131556174964 Z" fill="#3b82f6"/>
<path d="M 111.00813061875579 260.65637775217203 A 110 110 0 0 1 199.99999999999997 86 L 200 128 A 68 68 0 0 0 144.9868443825036 235.96939715588817 Z" fill="#e5e7eb"/>
<text x="200" y="186" font-family="system-ui, -apple-system, sans-serif" font-size="22" font-weight="800" fill="#22c55e" text-anchor="middle">57.3%</text>
<text x="200" y="208" font-family="system-ui, -apple-system, sans-serif" font-size="12" font-weight="normal" fill="rgba(255,255,255,0.55)" text-anchor="middle">saved</text>
<rect x="356" y="152" width="14" height="14" fill="#6366f1" rx="3"/>
<text x="378" y="163" font-family="system-ui, -apple-system, sans-serif" font-size="13" font-weight="600" fill="#ffffff" text-anchor="start">Booster (no AI)</text>
<text x="378" y="178" font-family="system-ui, -apple-system, sans-serif" font-size="11" font-weight="normal" fill="rgba(255,255,255,0.55)" text-anchor="start">30% of requests</text>
<rect x="356" y="204" width="14" height="14" fill="#3b82f6" rx="3"/>
<text x="378" y="215" font-family="system-ui, -apple-system, sans-serif" font-size="13" font-weight="600" fill="#ffffff" text-anchor="start">Cache hit</text>
<text x="378" y="230" font-family="system-ui, -apple-system, sans-serif" font-size="11" font-weight="normal" fill="rgba(255,255,255,0.55)" text-anchor="start">35% of requests</text>
<rect x="356" y="256" width="14" height="14" fill="#e5e7eb" rx="3"/>
<text x="378" y="267" font-family="system-ui, -apple-system, sans-serif" font-size="13" font-weight="600" fill="#ffffff" text-anchor="start">API call</text>
<text x="378" y="282" font-family="system-ui, -apple-system, sans-serif" font-size="11" font-weight="normal" fill="rgba(255,255,255,0.55)" text-anchor="start">35.0% of requests</text>
</svg>