<svg width="16" height="16" viewBox="0 0 16 16" xmlns="http://www.w3.org/2000/svg">
  <defs>
    <linearGradient id="mongoConnected" x1="0%" y1="0%" x2="100%" y2="100%">
      <stop offset="0%" style="stop-color:#4DB33D;stop-opacity:1" />
      <stop offset="100%" style="stop-color:#3B9E2A;stop-opacity:1" />
    </linearGradient>
  </defs>
  <!-- MongoDB leaf design -->
  <path d="M8 1.5C6 1.5 4.5 3 4.5 5c0 2.5 2 4.5 3.5 7.5 1.5-3 3.5-5 3.5-7.5 0-2-1.5-3.5-3.5-3.5z" fill="url(#mongoConnected)" stroke="#2E7D1E" stroke-width="0.5"/>
  <path d="M8 2.5C7 2.5 6 3.5 6 4.5c0 1.5 1 3 2 5 1-2 2-3.5 2-5 0-1-1-2-2-2z" fill="white" opacity="0.3"/>
  <!-- Green connection indicator -->
  <circle cx="12" cy="4" r="2" fill="#34C759" stroke="white" stroke-width="0.5"/>
  <path d="M11.3 4l0.4 0.4 0.6-0.8" stroke="white" stroke-width="1" fill="none" stroke-linecap="round"/>
</svg>